<svg width="180" height="101" viewBox="0 0 180 101" fill="none" xmlns="http://www.w3.org/2000/svg">
<g clip-path="url(#clip0_58029_4887)">
<path d="M6.29464 60.149C6.22986 60.129 6.16543 60.1075 6.1017 60.0847C-0.890551 57.5804 -0.732838 50.4536 1.7002 44.9659C6.07597 35.0611 14.7144 25.815 25.3964 21.4285C32.2941 18.5959 42.9058 18.0126 46.2722 25.7221C48.5361 30.9065 47.4454 37.3278 46.0573 42.6119C45.7063 43.9483 45.2798 45.5931 44.7367 46.8535C48.0311 45.0497 50.3877 43.4007 50.9612 39.7509C51.098 38.8805 51.0125 38.8092 50.949 37.9637C51.8881 36.7909 55.6436 38.2652 56.3001 39.3098C57.2173 40.7693 56.1161 43.0225 55.5359 44.4544C55.1749 45.1419 54.8184 45.8313 54.4666 46.5227C55.0722 45.9246 55.4887 45.409 56.0231 44.7518C56.3626 44.4026 56.7129 44.0626 57.0736 43.7322C59.5098 41.4857 64.8525 38.6308 66.7155 43.316C67.1759 44.4738 67.0032 45.9914 66.9769 47.2415L67.1017 47.3083C68.7204 46.885 74.1846 43.7694 75.7016 42.8886C75.6164 43.2318 75.4368 43.9724 75.2525 44.238C73.4836 46.787 69.0313 48.4431 66.5381 50.235C66.0451 51.3606 65.6965 52.8982 65.1916 54.0966C63.4118 58.2036 61.3807 61.7069 57.5082 64.448C54.3086 66.7129 48.0052 66.2742 49.1674 61.4792C50.2453 57.0324 55.8424 53.3372 59.9712 50.9811C60.4387 49.8701 62.0265 45.1832 60.3457 44.6668C57.5443 45.033 51.5229 54.2078 50.3609 56.6121C46.9951 63.5755 42.5997 73.5601 42.8827 81.2215C38.0396 81.9325 34.6522 79.879 36.1711 74.9889C37.6219 70.3187 39.6289 65.9118 41.6822 61.4491C43.8073 56.7991 45.9634 52.1611 48.1503 47.5357C46.6365 48.6832 45.417 49.2304 43.6203 49.8261C42.6542 51.757 41.9722 53.7856 40.8963 55.8008C37.17 62.7798 32.0731 70.5061 24.7925 74.709C21.2837 76.6665 17.0601 77.698 13.0291 76.6557C5.05274 74.5933 4.53186 66.3296 6.29464 60.149ZM9.04878 52.2048C11.8184 45.8606 18.5525 34.5647 27.2846 34.9462C27.6193 34.9607 28.5771 35.229 28.9066 35.3622C29.9385 35.7793 31.3488 36.4792 31.3452 37.6527C31.2979 37.7184 28.6737 38.3615 27.9641 38.7779C21.7871 42.4036 16.68 49.9607 14.3668 56.1837C16.7701 56.4766 17.9096 56.204 20.2156 55.8044C22.9052 54.9781 25.5617 54.183 27.7259 52.4679C28.0553 52.2067 28.4427 51.9032 28.8852 51.9312C29.1778 52.3113 29.0135 52.8629 28.9709 53.2945C28.8337 54.6803 27.2657 56.0809 26.0502 56.8618C23.2507 58.66 19.7999 59.7936 16.4562 60.4118C15.2331 60.638 14.0161 60.7135 12.8529 60.9098C11.8108 63.2953 11.1657 68.7114 12.3727 71.1126C12.5762 71.5176 12.926 72.0305 13.2205 72.3962C14.3953 73.0068 15.5123 73.1666 16.8304 72.8261C22.0306 71.4827 28.2138 62.3876 30.7432 58.1919C35.0318 51.0783 42.3931 35.1557 39.893 26.977C39.4535 25.5393 38.6922 24.2479 37.2359 23.4974C36.1364 22.9309 34.7864 22.7493 33.5415 22.8183C27.14 24.149 22.6877 27.7872 18.6064 32.3448C14.1588 37.3113 8.11571 45.5068 9.04878 52.2048ZM52.7858 62.0564C55.3423 61.4643 57.5332 56.9285 58.6094 54.7974C58.4959 54.6787 58.5555 54.6944 58.4286 54.6688C57.0617 55.6851 51.1899 60.4207 52.7858 62.0564Z" fill="#21A642"/>
<path d="M133.79 43.2199C136.213 39.8052 144.02 29.719 149.258 35.214C149.398 35.3616 149.553 35.8648 149.438 36.0106C148.037 37.7951 140.476 49.4926 141.924 51.4283C143.02 51.9194 143.751 50.7845 144.474 50.2547C146.986 48.4164 147.07 46.1 148.423 43.6289C150.864 39.1692 154.171 34.4793 159.49 32.6878C161.98 31.8492 165.775 32.0596 166.648 34.843L166.797 34.8866C167.65 33.7312 167.405 33.6843 168.742 32.5818C170.489 32.2994 172.601 32.7398 173.692 34.1111C173.172 35.1002 171.668 36.8519 170.946 37.9813C168.479 41.8473 166.055 45.8109 164.516 50.0888C163.994 51.5388 163.414 54.4798 164.207 55.9073C164.676 56.7493 165.225 56.9059 166.115 57.1611C166.787 57.0373 167.523 56.879 168.1 56.528C172.019 54.1473 176.276 47.4663 173.538 43.2989C178.024 42.6936 181.55 44.4251 180.067 49.1093C178.122 55.2547 170.189 60.716 163.122 59.0582C160.058 58.3398 158.534 55.7926 158.406 53.0056C158.352 51.7147 158.811 50.2641 159.188 49.0188C157.424 51.4702 154.464 54.6469 151.279 55.3965C148.036 56.1595 146.716 54.2122 146.144 51.6477C144.292 54.6104 137.521 58.8911 135.665 54.1057C134.182 50.2806 139.275 42.0667 141.138 38.6981C139.433 39.88 138.174 41.3935 136.892 42.9468C134.343 46.0347 132.168 49.2978 130.692 52.9549C130.268 53.7496 130.144 56.0467 129.322 56.474C128.192 57.0604 124.663 55.8138 124.115 54.8565C123.059 53.009 124.458 50.3934 125.132 48.6334C126.44 45.2264 128.347 42.0597 129.647 38.6596C128.652 39.6451 127.582 40.523 126.616 41.5999C124.098 44.4086 121.906 47.8646 120.101 51.1066C119.513 52.4697 118.667 54.0195 118.276 55.435C117.769 57.2665 118.104 58.1978 115.337 57.8013C113.769 57.5767 112.847 57.0062 111.895 55.7524C111.868 54.7874 111.936 54.3051 112.147 53.3697C110.922 55.6406 107.086 59.9322 103.883 58.6338C100.206 57.1433 102.132 52.0077 103.234 49.4954C103.605 48.9498 103.837 48.3494 104.099 47.751C103.507 48.4689 103.108 48.9628 102.611 49.7333C99.9643 53.3079 93.8771 64.633 87.9347 59.3687C87.6937 59.1551 87.6207 58.6694 87.2487 58.4448C86.9567 58.6497 86.4932 59.115 86.2753 59.3793C83.3861 62.8843 78.4335 62.6905 78.229 57.5619C78.2158 57.2291 78.3246 56.5198 78.4146 56.1872C78.9871 54.0741 79.2168 51.2469 80.3575 49.3563L80.3039 49.2409C79.8727 49.5788 79.1625 51.3442 78.8279 51.9045C76.9229 55.094 72.5548 64.9334 67.4624 63.8674C66.5081 63.6626 65.6821 63.114 65.1683 62.3437C63.5023 59.847 65.4559 54.1857 68.0686 52.6157C69.3648 51.8369 71.9256 52.0279 72.7644 53.3617C72.7878 53.8949 71.5625 54.9413 71.2837 55.5436C70.8078 56.5719 70.4097 57.7675 70.0066 58.8214C74.3511 56.7865 80.2153 43.7409 81.9973 39.2661C82.45 38.1294 87.9776 37.812 88.8606 38.5951C89.4597 39.1259 88.0344 42.488 87.8061 43.229C87.2603 45.0069 82.9582 55.7448 84.6611 56.9295C85.1327 56.9602 85.6414 56.6351 85.93 56.3235C88.4075 53.6354 88.1897 49.0309 93.6476 50.8199C96.9665 51.9077 91.9002 54.221 93.2478 56.1379L93.548 56.1473C94.7613 55.6685 99.7372 49.9909 99.743 49.3488L99.6028 49.3096C98.3756 49.7477 95.2769 49.6614 94.0764 49.0417C90.8955 47.4001 91.9442 43.6634 93.4251 41.3178C95.1889 38.5415 97.8333 36.4055 101.169 35.4618C110.031 32.9553 109.382 39.0642 105.963 44.3222C107.041 43.4572 107.918 42.4216 109.385 43.0304C111.014 43.7735 111.328 44.2549 110.594 45.7405C109.803 47.3446 107.136 52.3109 107.834 53.8974C108.376 54.2727 109.095 53.7345 109.456 53.3269C113.146 49.1672 116.326 44.1063 117.855 38.8948C118.204 37.7063 118.141 36.0406 118.133 34.8097C126.783 33.8733 124.139 38.5648 122.04 43.5811C124.624 40.3347 126.948 36.8378 130.809 34.6758C133.292 33.2853 135.974 33.7096 137.383 36.1533C137.135 36.8497 136.588 37.6195 136.254 38.2983C135.495 39.8344 134.394 41.6549 133.79 43.2199ZM155.404 49.3947C157.219 47.9344 160.679 43.7929 161.856 41.8333C161.49 41.5747 160.835 41.8528 160.412 41.5996C160.434 41.2945 161.73 40.1482 162.075 39.9504C163.334 39.2296 165.241 35.3656 162.585 35.5422C158.879 36.8155 156.299 41.1236 154.635 44.2764C154.134 45.2254 152.233 49.3498 153.524 50.1051C154.161 50.1973 154.874 49.7096 155.404 49.3947ZM99.3872 46.5725C100.285 46.5266 100.802 46.3994 101.634 46.04C102.637 45.0334 106.981 37.7568 103.608 38.0203C101.114 39.208 99.3107 41.7322 98.3814 44.1422C97.977 45.1918 98.0407 46.2471 99.3872 46.5725Z" fill="#21A642"/>
<path d="M137.211 58.483C137.539 58.4512 137.912 58.448 138.244 58.4459C143.718 58.4104 149.487 58.3427 154.777 59.7963C157.688 60.5965 159.556 62.7312 158.5 65.5871C157.948 67.0805 156.687 67.6413 155.276 68.2916C155.251 68.1214 155.22 67.9517 155.185 67.7829C154.599 65.0791 145.097 64.692 142.728 64.5708C131.609 64.0023 120.435 64.7901 109.383 65.8996C95.7898 67.2911 82.2841 69.3359 68.9216 72.0258C64.1271 72.8399 59.0695 74.1733 54.4068 75.5352C53.3509 75.8437 50.4356 77.1552 49.7071 77.2227C49.4831 77.2435 49.3653 77.1934 49.1958 77.0583C48.8578 76.7887 48.7556 76.1678 48.7321 75.7827C48.6807 74.9391 48.8551 74.208 49.4827 73.5804C54.4127 68.6496 89.7431 63.3046 98.4817 62.0658C103.198 61.4412 107.921 60.8601 112.65 60.3225C120.81 59.431 129.002 58.8175 137.211 58.483Z" fill="#21A642"/>
<path d="M141.84 25.7485C143.372 25.4379 146.488 25.8134 147.935 26.397C149.721 27.1173 150.849 30.7817 148.538 31.4004C148.139 31.3193 147.829 30.7411 147.614 30.6723C143.468 29.3438 135.027 31.0821 131.178 31.6768C130.639 31.7691 130.097 31.8474 129.553 31.9116C127.828 32.1117 125.113 32.3678 123.632 31.3384C122.766 30.7358 122.152 28.6671 122.801 27.7844C122.941 27.5928 123.123 27.5684 123.361 27.574C124.297 28.0789 125.255 28.1995 126.333 28.1234C131.57 27.7538 136.607 26.1349 141.84 25.7485Z" fill="#21A642"/>
<path d="M55.536 44.4546C55.6876 44.5523 55.8624 44.675 56.0233 44.7519C55.4889 45.4091 55.0724 45.9248 54.4668 46.5229C54.8186 45.8315 55.1751 45.1421 55.536 44.4546Z" fill="#C4C8C4" fill-opacity="0.0156863"/>
<path d="M102.606 49.7328C103.104 48.9623 103.502 48.4683 104.094 47.7505C103.832 48.3489 103.601 48.9493 103.23 49.4949L102.606 49.7328Z" fill="#C4C8C4" fill-opacity="0.0509804"/>
</g>
<defs>
<clipPath id="clip0_58029_4887">
<rect width="180" height="100.102" fill="white"/>
</clipPath>
</defs>
</svg>
