<svg width="32" height="32" viewBox="0 0 32 32" fill="none" xmlns="http://www.w3.org/2000/svg">
<g clip-path="url(#clip0_57983_5019)">
<path d="M7.7824 32H24.2144C28.512 32 31.9968 28.5152 31.9968 24.2176V7.7824C32 3.4944 28.528 0.0128 24.24 0H7.76C3.472 0.0128 0 3.4944 0 7.7824V24.2144C0 28.5152 3.4848 32 7.7824 32Z" fill="#9999A2"/>
<path d="M18.9297 15.4321H11.5721V12.5205H18.9297C19.3606 12.5205 19.6594 12.5952 19.8089 12.7272C19.9583 12.8592 20.053 13.1008 20.053 13.4545V14.5006C20.053 14.8742 19.9608 15.1158 19.8089 15.2478C19.6594 15.3773 19.3606 15.4321 18.9297 15.4321ZM19.4353 9.77319H8.45117V22.2268H11.5721V18.1744H17.3231L20.0505 22.2268H23.545L20.5362 18.157C21.6446 17.9926 22.1427 17.6514 22.5537 17.0934C22.9646 16.533 23.1714 15.6364 23.1714 14.4433V13.5093C23.1714 12.7994 23.0966 12.239 22.9646 11.8106C22.8326 11.3822 22.611 11.0086 22.2921 10.6723C21.9559 10.3535 21.5823 10.1319 21.134 9.98241C20.6856 9.84792 20.1252 9.77319 19.4353 9.77319Z" fill="white"/>
</g>
<defs>
<clipPath id="clip0_57983_5019">
<rect width="32" height="32" rx="16" fill="white"/>
</clipPath>
</defs>
</svg>
